<svg xmlns="http://www.w3.org/2000/svg" viewBox="0 0 48 48"><path fill="#FFE649" fill-rule="nonzero" d="M45.997 26H42c-1.106 0-2-.896-2-2s.894-2 2-2h3.997c1.105 0 2 .896 2 2s-.894 2-2 2zm-7.855-13.312c-.78.78-2.05.78-2.828 0-.78-.78-.78-2.047 0-2.828l2.828-2.828c.78-.78 2.047-.78 2.828 0 .78.78.78 2.047 0 2.828l-2.828 2.828zm-14.14 23.31c-6.628 0-12-5.372-12-11.998 0-6.627 5.37-12 12-12 6.626 0 11.997 5.373 11.997 12 0 6.626-5.372 11.998-12 11.998zM24 16c-4.42 0-8 3.582-8 8 0 4.417 3.582 8 8 8 4.416 0 7.997-3.583 7.997-8 0-4.418-3.58-8-8-8zm0-7.998c-1.106 0-2-.896-2-2v-4c0-1.103.894-2 2-2 1.103 0 2 .897 2 2v4c0 1.104-.898 2-2 2zM9.86 12.688L7.032 9.86c-.78-.78-.78-2.047 0-2.828.78-.78 2.047-.78 2.828 0l2.828 2.828c.78.78.78 2.047 0 2.828-.78.78-2.047.78-2.828 0zM8.002 24c0 1.104-.896 2-2 2h-4c-1.104 0-2-.896-2-2s.897-2 2-2h4c1.105 0 2 .896 2 2zM9.86 35.312c.78-.78 2.047-.78 2.828 0 .78.78.78 2.048 0 2.828L9.86 40.968c-.78.78-2.047.78-2.828 0-.78-.78-.78-2.047 0-2.828l2.828-2.828zM24 39.998c1.105 0 2 .895 2 2v4c0 1.103-.895 2-2 2-1.104 0-2-.897-2-2v-4c0-1.105.896-2 2-2zm14.142-4.686l2.828 2.828c.78.78.78 2.048 0 2.828-.78.78-2.05.78-2.828 0l-2.828-2.828c-.78-.78-.78-2.047 0-2.828.78-.78 2.046-.78 2.828 0z"/></svg>