<svg xmlns="http://www.w3.org/2000/svg" viewBox="0 0 45 39"><g fill="none" fill-rule="evenodd"><path fill="#F8F99C" d="M40.8 13.78C34 12.5 31.5 6.5 31.21 4.21 27.5 5 25.5 8.5 25.28 9.98 24.5 9.5 24 9 21.67 8.037 23.306 3.357 27.76 0 33 0c.754 0 1.49.078 2.206.212-.132.576-.208 1.173-.208 1.788 0 4.418 3.582 8 8 8 .615 0 1.212-.077 1.788-.21.133.718.21 1.453.21 2.21 0 3.13-1.2 5.983-3.165 8.12L39 17.25c1-1.25 1.74-3.25 1.8-3.47z"/><path fill="#999" d="M15.998 38.996C7.163 38.996 0 31.834 0 22.998 0 14.162 7.163 7 15.998 7c6.004 0 11.23 3.312 13.965 8.203.664-.113 1.338-.205 2.033-.205 6.627 0 12 5.373 12 12 0 6.625-5.373 11.998-12 11.998H15.998zm15.998-4c4.418 0 8-3.582 8-7.998 0-4.418-3.582-8-8-8-1.6 0-3.082.48-4.333 1.29C26.433 14.974 21.69 11 15.998 11 9.372 11 4 16.372 4 23c0 6.626 5.372 11.998 11.998 11.998h15.998z"/></g></svg>