<svg xmlns="http://www.w3.org/2000/svg" viewBox="0 0 55 61"><g fill="none" fill-rule="evenodd"><path fill="#FFE649" fill-rule="nonzero" d="M52.997 26.546H49c-1.106 0-2-.895-2-2 0-1.103.894-2 2-2h3.997c1.105 0 2 .897 2 2 0 1.105-.894 2-2 2zm-7.855-13.31c-.78.78-2.05.78-2.828 0-.78-.782-.78-2.048 0-2.83l2.828-2.827c.78-.784 2.047-.784 2.828 0 .78.78.78 2.044 0 2.825l-2.828 2.828zM31.002 8.55c-1.106 0-2-.898-2-2v-4c0-1.105.894-2 2-2 1.103 0 2 .895 2 2v4c0 1.102-.898 2-2 2zM16.86 13.233l-2.828-2.828c-.78-.78-.78-2.047 0-2.828.78-.782 2.047-.782 2.828 0l2.828 2.827c.78.78.78 2.047 0 2.828-.78.78-2.047.78-2.828 0zM42.27 28.66C40.5 27 41 27.5 38.91 25.75c.59-3.25-1.41-8.98-7.966-9.2C29 16.485 27 17.3 25.66 18.6c-.66-.4-1.66-1.1-3.81-1.83 2.15-2.45 5.236-4.19 9.094-4.21C37.5 12.5 43 17.85 43 24.64c0 1.516-.217 2.685-.73 4.02z"/><path fill="#1A5FB3" d="M14.945 36.64c1.105 0 2 .897 2 2v16c0 1.104-.895 2-2 2-1.104 0-2-.896-2-2v-16c0-1.103.897-2 2-2zm8 4c1.104 0 2 .896 2 2v16c0 1.103-.896 2-2 2-1.105 0-2-.897-2-2v-16c0-1.105.895-2 2-2zm7.998-5c1.105 0 2 .897 2 2v16c0 1.104-.895 2-2 2-1.104 0-2-.896-2-2v-16c0-1.103.897-2 2-2z"/><path fill="#999" d="M8.945 46.48C4 43.5 1 38.5.95 32.3.95 23.297 8.163 16 16.998 16c6.004 0 11.23 3.375 13.965 8.358.664-.115 1.338-.21 2.033-.21 6.627 0 12 5.475 12 12.228 0 6.75-4.996 10.574-8.046 11.524 0-1.47 0-1.9.02-4.4 3.53-1.93 5.03-6.45 3.13-10.45-2.1-4.48-7.8-5.6-11.5-3.13C27 22.5 18.5 18.2 11.5 22c-7 3.5-9.327 13.314-2.55 19.57.05 1.43 0 2.43-.005 4.91z"/></g></svg>