<svg xmlns="http://www.w3.org/2000/svg" viewBox="0 0 54 48"><g fill="none" fill-rule="evenodd"><path fill="#FFE649" fill-rule="nonzero" d="M51.85 26.496h-3.997c-1.105 0-2-.895-2-2 0-1.103.895-2 2-2h3.998c1.11 0 2 .897 2 2 0 1.105-.89 2-2 2zm-7.854-13.31c-.78.78-2.05.78-2.828 0-.78-.782-.78-2.048 0-2.83l2.828-2.827c.78-.79 2.047-.79 2.828 0 .78.78.78 2.04 0 2.82l-2.828 2.83zM29.856 8.5c-1.106 0-2-.898-2-2v-4c0-1.105.894-2 2-2 1.103 0 2 .895 2 2v4c0 1.102-.898 2-2 2zm-14.142 4.684l-2.828-2.828c-.78-.78-.78-2.047 0-2.828.78-.782 2.047-.782 2.828 0l2.828 2.827c.78.78.78 2.047 0 2.828-.78.78-2.047.78-2.828 0zm25.41 15.425c-1.77-1.66-1.27-1.16-3.36-2.91.59-3.25-1.41-8.98-7.966-9.2-1.943-.07-3.944.75-5.284 2.05-.66-.4-1.66-1.1-3.81-1.83 2.15-2.45 5.236-4.19 9.094-4.21 6.556-.06 12.056 5.29 12.056 12.08 0 1.51-.217 2.68-.73 4.02z"/><path fill="#999" d="M15.998 47.996C7.163 47.996 0 40.834 0 31.998 0 23.162 7.163 16 15.998 16c6.004 0 11.23 3.312 13.965 8.203.664-.113 1.338-.205 2.033-.205 6.627 0 12 5.373 12 12 0 6.625-5.373 11.998-12 11.998H15.998zm15.998-4c4.418 0 8-3.582 8-7.998 0-4.418-3.582-8-8-8-1.6 0-3.082.48-4.333 1.29C26.433 23.974 21.69 20 15.998 20 9.372 20 4 25.372 4 32c0 6.626 5.372 11.998 11.998 11.998h15.998z"/></g></svg>