<svg xmlns="http://www.w3.org/2000/svg" viewBox="0 0 45 44"><g fill="none" fill-rule="evenodd"><path fill="#1A5FB3" fill-rule="nonzero" d="M14.945 27.85l-2.12 2.12c-1.172 1.173-1.172 3.07 0 4.243 1.17 1.172 3.07 1.172 4.24 0 1.173-1.172 1.173-3.07 0-4.242l-2.12-2.12zm7 7.998l-2.12 2.12c-1.173 1.173-1.173 3.073 0 4.243 1.17 1.175 3.07 1.175 4.24 0 1.172-1.17 1.172-3.07 0-4.24l-2.12-2.12zm7-7.998l-2.122 2.12c-1.172 1.173-1.172 3.07 0 4.243 1.17 1.172 3.07 1.172 4.242 0 1.17-1.172 1.17-3.07 0-4.242l-2.12-2.12z"/><path fill="#999" d="M8 30.5C3.055 27.52.05 23.15 0 16.95 0 7.947 7.213.65 16.048.65c6.004 0 11.23 3.375 13.965 8.358.664-.115 1.338-.21 2.033-.21 6.627 0 12 5.475 12 12.228 0 6.75-5.066 9.964-8.116 10.914-.04-1.44-.53-2.74-1.22-3.8C39 26.5 41.05 21.7 39.15 17.7c-2.1-4.48-7.8-5.6-11.5-3.13C26.05 7.15 19.5 2.5 11 5.7 6.5 8 4 11.5 4 16.95 4.5 24 8.5 26.1 10 27.1 9 28 8.5 29 8 30.5z"/></g></svg>