<svg xmlns="http://www.w3.org/2000/svg" viewBox="0 0 46 53"><g fill="none" fill-rule="evenodd"><path fill="#1A5FB3" d="M14.945 28.64c1.105 0 2 .897 2 2v16c0 1.104-.895 2-2 2-1.104 0-2-.896-2-2v-16c0-1.103.897-2 2-2zm8 4c1.104 0 2 .896 2 2v16c0 1.103-.896 2-2 2-1.105 0-2-.897-2-2v-16c0-1.105.895-2 2-2zm7.998-5c1.105 0 2 .897 2 2v16c0 1.104-.895 2-2 2-1.104 0-2-.896-2-2v-16c0-1.103.897-2 2-2z"/><path fill="#F8F99C" d="M40.83 14.48c-6.8-1.28-9.3-7.28-9.59-9.57-3.71.79-5.71 4.29-5.93 5.77-.78-.48-1.28-.98-3.61-1.943C23.337 4.057 27.79.7 33.03.7c.754 0 1.49.078 2.206.212-.132.576-.208 1.173-.208 1.788 0 4.418 3.582 8 8 8 .615 0 1.212-.077 1.788-.21.133.718.21 1.453.21 2.21 0 3.13-1.2 5.983-3.165 8.12l-2.83-2.87c1-1.25 1.74-3.25 1.8-3.47z"/><path fill="#999" d="M8.945 38.48C4 35.5 1 30.5.95 24.3.95 15.297 8.163 8 16.998 8c6.004 0 11.23 3.375 13.965 8.358.664-.115 1.338-.21 2.033-.21 6.627 0 12 5.475 12 12.228 0 6.75-4.996 10.574-8.046 11.524 0-1.47 0-1.9.02-4.4 3.53-1.93 5.03-6.45 3.13-10.45-2.1-4.48-7.8-5.6-11.5-3.13C27 14.5 18.5 10.2 11.5 14c-7 3.5-9.327 13.314-2.55 19.57.05 1.43 0 2.43-.005 4.91z"/></g></svg>