<svg xmlns="http://www.w3.org/2000/svg" viewBox="0 0 44 45"><g fill="none" fill-rule="evenodd"><path fill="#999" d="M32 32.64h-1.063l3.585-4.41C37.702 27.17 40 24.175 40 20.64c0-4.417-3.582-7.997-8-7.997-1.6 0-3.083.48-4.333 1.29-1.232-5.316-5.974-9.29-11.665-9.29-6.626 0-11.998 5.372-11.998 12 0 5.446 3.632 10.038 8.604 11.504l-1.35 3.777C4.74 29.904.005 23.826.005 16.642c0-8.835 7.163-16 15.998-16 6.004 0 11.23 3.313 13.965 8.205.664-.114 1.337-.205 2.033-.205 6.628 0 12 5.37 12 11.998 0 6.627-5.373 12-12 12z"/><path fill="#FFE649" d="M20 18.64h10l-6 10h7l-13 16 3.6-12H15"/></g></svg>