<svg xmlns="http://www.w3.org/2000/svg" viewBox="0 0 45 49"><g fill="none" fill-rule="evenodd"><path fill="#F8F99C" d="M39.83 14.48c-6.8-1.28-9.3-7.28-9.59-9.57-3.71.79-5.71 4.29-5.93 5.77-.78-.48-1.28-.98-3.61-1.943C22.337 4.057 26.79.7 32.03.7c.754 0 1.49.078 2.206.212-.132.576-.208 1.173-.208 1.788 0 4.418 3.582 8 8 8 .615 0 1.212-.077 1.788-.21.133.718.21 1.453.21 2.21 0 3.13-1.2 5.983-3.165 8.12l-2.83-2.87c1-1.25 1.74-3.25 1.8-3.47z"/><path fill="#999" d="M7.995 38.48C3.05 35.5.05 30.5 0 24.3 0 15.297 7.213 8 16.048 8c6.004 0 11.23 3.375 13.965 8.358.664-.115 1.338-.21 2.033-.21 6.627 0 12 5.475 12 12.228 0 6.75-4.996 10.574-8.046 11.524 0-1.47 0-1.9.02-4.4 3.53-1.93 5.03-6.45 3.13-10.45-2.1-4.48-7.8-5.6-11.5-3.13-1.6-7.42-10.1-11.72-17.1-7.92-7 3.5-9.327 13.314-2.55 19.57.05 1.43 0 2.43-.005 4.91z"/><path fill="#FFF" d="M13.95 32.44c1.104 0 2 .897 2 2 0 1.106-.896 2-2 2s-2-.894-2-2c0-1.103.896-2 2-2zm0 8c1.104 0 2 .896 2 2 0 1.105-.896 2-2 2s-2-.896-2-2c0-1.105.896-2 2-2zm8-4c1.104 0 2 .896 2 2 0 1.105-.897 2-2 2-1.105 0-2-.895-2-2s.895-2 2-2zm0 8c1.104 0 2 .895 2 2 0 1.104-.897 2-2 2-1.105 0-2-.896-2-2 0-1.105.895-2 2-2zm8-12c1.104 0 2 .897 2 2 0 1.106-.896 2-2 2s-2-.894-2-2c0-1.103.897-2 2-2zm0 8c1.104 0 2 .896 2 2 0 1.105-.896 2-2 2s-2-.896-2-2c0-1.105.897-2 2-2z"/></g></svg>