<svg xmlns="http://www.w3.org/2000/svg" viewBox="0 0 44 41"><g fill="none" fill-rule="evenodd"><path fill="#FFF" fill-opacity=".237" d="M41.998 32.64H2.003c-1.104 0-2-.895-2-2 0-1.104.896-2 2-2h39.995c1.104 0 2 .896 2 2s-.895 2-2 2zm0-8H2.003c-1.104 0-2-.894-2-2 0-1.103.896-2 2-2h39.995c1.104 0 2 .897 2 2 0 1.106-.895 2-2 2zm-39.995 12h39.995c1.104 0 2 .895 2 2 0 1.104-.896 2-2 2H2.003c-1.104 0-2-.896-2-2 0-1.105.895-2 2-2z"/><path fill="#999" d="M32 12.643c-1.602 0-3.084.48-4.334 1.29-1.232-5.316-5.974-9.29-11.665-9.29-6.623 0-11.995 5.373-11.995 12h-4c0-8.835 7.163-16 15.998-16 6.005 0 11.23 3.313 13.966 8.205.663-.113 1.336-.205 2.032-.205 5.22 0 9.65 3.342 11.3 8h-4.38c-1.384-2.39-3.96-4-6.92-4z"/></g></svg>