<?xml version="1.0" standalone="no"?>
<!DOCTYPE svg PUBLIC "-//W3C//DTD SVG 1.1//EN" "http://www.w3.org/Graphics/SVG/1.1/DTD/svg11.dtd" >
<svg xmlns="http://www.w3.org/2000/svg">
<metadata></metadata>
<defs>
<font id="weathertimeregular" horiz-adv-x="833" >
<font-face units-per-em="1000" ascent="750" descent="-250" />
<missing-glyph horiz-adv-x="500" />
<glyph unicode="&#xd;" horiz-adv-x="500" />
<glyph unicode=" "  horiz-adv-x="500" />
<glyph unicode="&#x09;" horiz-adv-x="500" />
<glyph unicode="&#xa0;" horiz-adv-x="500" />
<glyph unicode="A" d="M401 69q-53 0 -99.5 20t-81.5 54.5t-55 81.5t-20 100t20 99.5t55 81.5t81.5 55t99.5 20t99.5 -20t81.5 -55t55 -81.5t20 -99.5t-20 -100t-55 -81.5t-81.5 -54.5t-99.5 -20zM401 549q-46 0 -87 -17.5t-71.5 -48t-48 -71.5t-17.5 -87q0 -47 17.5 -87.5t48 -71t71.5 -48 t87 -17.5t87 17.5t71.5 48t48 71t17.5 87.5q0 46 -17.5 87t-48 71.5t-71.5 48t-87 17.5zM380 655q-16 0 -16 16v128q0 16 16 16t16 -16v-128q0 -16 -16 -16zM396 -161q0 -16 -16 -16t-16 16v128q0 16 16 16t16 -16v-128zM60 303q0 -16 -16 -16h-128q-16 0 -16 16t16 16h128 q16 0 16 -16zM876 319q16 0 16 -16t-16 -16h-128q-16 0 -16 16t16 16h128zM78 -26q-5 -5 -11 -5t-11 5q-12 11 0 23l90 90q5 5 11.5 5t11.5 -5q11 -11 0 -23zM655 558q-7 0 -11 4q-5 5 -5 11.5t5 11.5l90 90q12 12 23 0q11 -11 0 -22l-90 -91q-5 -4 -12 -4zM757 -3 q11 -12 0 -23q-5 -5 -11 -5q-5 0 -12 5l-90 90q-5 5 -5 11.5t5 11.5q11 11 23 0zM56 653q-5 5 -5 11t5 11t11 5t11 -5l91 -90q5 -5 5 -11.5t-5 -11.5q-4 -4 -11 -4q-8 0 -12 4z" />
<glyph unicode="B" d="M398 68q-53 0 -99.5 20t-81.5 55t-55 81.5t-20 99.5t20 99.5t55 81.5t81.5 55t99.5 20t99.5 -20t81.5 -55t55 -81.5t20 -99.5t-20 -99.5t-55 -81.5t-81.5 -55t-99.5 -20zM398 548q-47 0 -87.5 -17.5t-71 -48t-48 -71.5t-17.5 -87t17.5 -87t48 -71.5t71 -48t87.5 -17.5 q46 0 87 17.5t71.5 48t48 71.5t17.5 87t-17.5 87t-48 71.5t-71.5 48t-87 17.5z" />
<glyph unicode="C" d="M480 656q-16 0 -16 16v64q0 16 16 16t16 -16v-64q0 -16 -16 -16zM816 416q16 0 16 -16t-16 -16h-64q-16 0 -16 16t16 16h64zM88 0q-36 0 -68 14.5t-56 39t-38 57.5t-14 70t14 69.5t38 57.5t56 39.5t68 14.5q27 0 53 -9q7 30 22.5 55t38 43t50 28t58.5 10q9 28 26.5 51.5 t41 40t51 26t57.5 9.5q39 0 72.5 -14.5t59 -40t40 -59t14.5 -72.5q0 -40 -16.5 -76t-46.5 -63q18 -23 28.5 -51t10.5 -59q0 -37 -14 -70t-38 -57.5t-56 -39t-68 -14.5h-384zM486 584q-48 0 -87 -26.5t-56 -70.5q50 -9 87 -43t51 -83q31 -2 57.5 -14t49.5 -32q25 22 38.5 52 t13.5 63q0 32 -12 60t-33 49t-49 33t-60 12zM-56 181q0 -30 11.5 -57.5t31 -47.5t46 -32t55.5 -12h384q29 0 55.5 12t46 32t31 47.5t11.5 57.5t-11.5 57.5t-31 47.5t-46 32t-55.5 12q-1 -1 -3 -1q-14 0 -16 13q-5 25 -18.5 46.5t-32 37t-42 24t-48.5 8.5q-27 0 -52 -10 t-44 -27t-31.5 -40.5t-15.5 -51.5q0 -7 -8 -12q-8 -4 -14 0q-31 13 -59 13q-29 0 -55.5 -12t-46 -32t-31 -47.5t-11.5 -57.5zM239 629q-11 11 0 23q11 11 22 0l46 -46q5 -5 5 -11t-5 -11t-12 -5q-6 0 -11 5zM680 579q-6 0 -11 5t-5 11t5 11l45 46q11 11 23 0q11 -12 0 -23 l-46 -45q-5 -5 -11 -5zM687 245q-5 5 -5 11t5 11t11.5 5t11.5 -5l45 -45q11 -11 0 -23q-4 -4 -11 -4t-12 4z" />
<glyph unicode="D" d="M249 0q-36 0 -68 14t-56 38t-38 56.5t-14 68.5t14 68.5t38 56.5t56 38t68 14q27 0 53 -9q7 30 22.5 55t38 43t50 28t58.5 10q9 28 26.5 51.5t41 40t51 26t57.5 9.5q38 0 72 -14.5t59.5 -40t40 -59t14.5 -72.5q0 -40 -16.5 -75.5t-45.5 -62.5q17 -22 27.5 -49t10.5 -58 q0 -36 -14 -68.5t-38 -56.5t-56 -38t-68 -14h-384zM647 576q-48 0 -87 -26.5t-56 -70.5q49 -9 86.5 -43t51.5 -83q31 -2 58.5 -13.5t49.5 -31.5q24 22 37.5 51.5t13.5 62.5q0 32 -12 60t-33 49t-49 33t-60 12zM249 322q-30 0 -56.5 -11.5t-46 -31t-30.5 -46t-11 -56.5 t11 -56.5t30.5 -46t46 -31t56.5 -11.5h384q30 0 56 11.5t45.5 31t31 46t11.5 56.5t-11.5 56.5t-31 46t-45.5 31t-56 11.5q-1 -1 -4 -1q-13 0 -15 13q-5 25 -18.5 46.5t-32 37t-42 24t-48.5 8.5q-27 0 -52 -10t-44 -27t-31.5 -40.5t-15.5 -51.5q0 -7 -8 -12q-7 -4 -14 0 q-31 13 -59 13z" />
<glyph unicode="E" d="M159 308q-16 0 -16 16q0 53 20 99.5t55 81.5t81.5 55t99.5 20t99.5 -20t81.5 -55t55 -81.5t20 -99.5q0 -16 -16 -16t-16 16q0 46 -17.5 87t-48 71.5t-71.5 48t-87 17.5q-47 0 -87.5 -17.5t-71 -48t-48 -71.5t-17.5 -87q0 -16 -16 -16zM571 103q-35 -32 -79.5 -49.5 t-92.5 -17.5t-92.5 17.5t-80.5 49.5q-5 5 -5.5 11.5t4.5 11.5q11 11 23 1q31 -29 70 -44t81 -15t80.5 15t69.5 44q5 4 11.5 3.5t11.5 -5.5q10 -11 -1 -22zM79 228q-16 0 -16 16t16 16h640q16 0 16 -16t-16 -16h-640zM623 196q16 0 16 -16t-16 -16h-448q-16 0 -16 16t16 16 h448z" />
<glyph unicode="F" d="M216 -61q5 5 11.5 5t11.5 -5q11 -12 0 -23l-80 -80q-5 -5 -11 -5t-11 5q-12 11 0 23zM344 -61q5 5 11.5 5t11.5 -5q11 -12 0 -23l-80 -80q-5 -5 -11 -5t-11 5q-12 11 0 23zM472 -61q5 5 11.5 5t11.5 -5q11 -12 0 -23l-80 -80q-5 -5 -11 -5t-11 5q-12 11 0 23zM600 -61 q5 5 11.5 5t11.5 -5q11 -12 0 -23l-80 -80q-5 -5 -11 -5t-11 5q-12 11 0 23zM248 -1q-36 0 -68 14t-56 38t-38 56.5t-14 68.5t14 68.5t38 56.5t56 38t68 14q27 0 53 -9q7 30 22.5 55t38 43t50 28t58.5 10q9 28 26.5 51.5t41 40t51 26t57.5 9.5q38 0 72 -14.5t59.5 -40 t40 -59t14.5 -72.5q0 -40 -16.5 -75.5t-45.5 -62.5q17 -22 27.5 -49t10.5 -58q0 -36 -14 -68.5t-38 -56.5t-56 -38t-68 -14h-384zM646 575q-48 0 -87 -26.5t-56 -70.5q49 -9 86.5 -43t51.5 -83q31 -2 58.5 -13.5t49.5 -31.5q24 22 37.5 51.5t13.5 62.5q0 32 -12 60t-33 49 t-49 33t-60 12zM248 321q-30 0 -56.5 -11.5t-46 -31t-30.5 -46t-11 -56.5t11 -56.5t30.5 -46t46 -31t56.5 -11.5h384q30 0 56 11.5t45.5 31t31 46t11.5 56.5t-11.5 56.5t-31 46t-45.5 31t-56 11.5q-1 -1 -4 -1q-13 0 -15 13q-5 25 -18.5 46.5t-32 37t-42 24t-48.5 8.5 q-27 0 -52 -10t-44 -27t-31.5 -40.5t-15.5 -51.5q0 -7 -8 -12q-8 -4 -14 0q-31 13 -59 13z" />
<glyph unicode="G" d="M68 201q-16 0 -16 16q0 37 14 70.5t38 59t56 40t68 14.5q26 0 53 -8q7 30 23 55t38.5 43t50.5 28t59 10q60 0 106.5 -35.5t62.5 -92.5q34 -2 64.5 -17.5t53 -40t36 -57.5t13.5 -69q0 -16 -16 -16t-16 16q0 31 -11.5 58.5t-31 48.5t-46 33t-55.5 12h-3q-14 0 -16 13 q-5 25 -18.5 46t-32 36.5t-42 24t-48.5 8.5q-27 0 -52 -9.5t-44 -27t-31.5 -41t-15.5 -50.5q0 -9 -8 -12q-6 -4 -14 -1q-27 13 -59 13q-29 0 -55.5 -12t-46 -33t-31 -48.5t-11.5 -58.5q0 -16 -16 -16zM68 129q-16 0 -16 16t16 16h704q16 0 16 -16t-16 -16h-704zM68 65 q-16 0 -16 16t16 16h704q16 0 16 -16t-16 -16h-704zM68 1q-16 0 -16 16t16 16h704q16 0 16 -16t-16 -16h-704z" />
<glyph unicode="H" d="M262 75q-32 35 -49.5 79.5t-17.5 92.5q0 53 20 99.5t55 81.5t81.5 55t99.5 20q48 0 92.5 -17.5t79.5 -49.5l181 181q11 12 23 0q11 -11 0 -22l-699 -699q-4 -4 -11 -4t-12 4q-5 5 -5 11.5t5 11.5zM451 471q-47 0 -87.5 -17.5t-71 -48t-48 -71.5t-17.5 -87q0 -86 57 -149 l316 316q-63 57 -149 57zM444 589q-16 0 -16 16v128q0 16 16 16t16 -16v-128q0 -16 -16 -16zM-20 221q-16 0 -16 16t16 16h128q16 0 16 -16t-16 -16h-128zM105 575q-11 11 0 23q12 11 23 0l91 -91q5 -5 5 -11t-5 -11q-4 -5 -12 -5q-7 0 -11 5z" />
<glyph unicode="I" d="M401 69q-53 0 -99.5 20t-81.5 55t-55 81.5t-20 99.5t20 99.5t55 81.5t81.5 55t99.5 20q74 0 136 -39q8 -5 8 -14q0 -10 -8 -13q-49 -32 -76.5 -82t-27.5 -108t27.5 -108t76.5 -81q8 -5 8 -13q0 -9 -8 -14q-63 -40 -136 -40zM401 549q-47 0 -87.5 -17.5t-71 -48t-48 -71.5 t-17.5 -87t17.5 -87t48 -71.5t71 -48t87.5 -17.5q50 0 98 23q-47 36 -72.5 88.5t-25.5 112.5t25.5 112.5t72.5 89.5q-49 22 -98 22z" />
<glyph unicode="J" d="M664 360q34 -2 64.5 -17t53 -39.5t35.5 -56.5t13 -67q0 -37 -14 -70t-38 -57.5t-56 -39t-68 -14.5h-384q-36 0 -68 14.5t-56 39t-38 57.5t-14 70q0 38 16 73q-12 8 -23 15.5t-21 17.5q-44 44 -56 103q-2 8 4 14t15 5q45 -11 88.5 2t76.5 45q32 32 45 76t2 89q-2 9 4 15 t15 4q60 -14 102 -56q23 -23 37.5 -51.5t20.5 -60.5q34 17 74 17q60 0 106.5 -35.5t63.5 -92.5zM88 309q18 -17 38 -28q24 35 61.5 57t82.5 22q26 0 53 -8q15 64 67 101q-3 31 -16 58t-34 49q-27 27 -64 41q5 -47 -10.5 -91t-49.5 -77q-34 -34 -77.5 -50t-90.5 -11 q7 -17 16.5 -33t23.5 -30zM654 31q29 0 55.5 12t46 32t31 47.5t11.5 57.5t-11.5 57t-31 47t-46 32t-55.5 12h-3q-13 0 -16 13q-5 25 -18 46t-32 36.5t-42.5 24t-48.5 8.5q-27 0 -51.5 -9.5t-43.5 -27t-31.5 -41t-15.5 -50.5q-2 -9 -8 -12q-7 -4 -15 -1q-27 13 -59 13 q-29 0 -55.5 -12t-46 -32t-31 -47t-11.5 -57t11.5 -57.5t31 -47.5t46 -32t55.5 -12h384z" />
<glyph unicode="K" d="M668 366q34 -2 64.5 -17.5t53 -40t35.5 -56.5t13 -68q0 -37 -14 -70.5t-38 -58.5t-56 -39.5t-68 -14.5h-384q-36 0 -68 14.5t-56 39.5t-38 58.5t-14 70.5q0 39 17 75q-26 13 -45 33q-44 44 -56 102q-2 9 4 15t15 5q45 -11 88.5 2t76.5 45q32 32 45 76t2 89q-2 9 4 15 q7 6 15 4q60 -14 102 -56q23 -23 37.5 -51.5t20.5 -60.5q17 8 35.5 12.5t38.5 4.5q60 0 106.5 -35.5t63.5 -92.5zM92 315q9 -8 18.5 -15t19.5 -13q24 35 61.5 57t82.5 22q27 0 53 -9q8 32 25 58t42 44q-6 62 -50 107q-27 27 -64 41q5 -47 -10.5 -91t-49.5 -78 q-34 -33 -77.5 -49t-90.5 -11q14 -37 40 -63zM658 33q29 0 55.5 12t46 32.5t31 48t11.5 58.5q0 30 -11.5 57.5t-31 48t-46 32.5t-55.5 12h-3q-13 0 -16 12q-5 25 -18 46.5t-32 37t-42.5 24t-48.5 8.5q-27 0 -51.5 -9.5t-43.5 -27t-31.5 -41t-15.5 -50.5q-2 -9 -8 -12 q-7 -4 -15 -1q-27 13 -59 13q-29 0 -55.5 -12t-46 -32.5t-31 -48t-11.5 -57.5q0 -31 11.5 -58.5t31 -48t46 -32.5t55.5 -12h384zM131 -158q-5 -5 -11 -5t-11 5q-12 11 0 23l79 80q5 5 11.5 5t11.5 -5q11 -12 0 -23zM259 -158q-5 -5 -11 -5t-11 5q-12 11 0 23l79 80 q5 5 11.5 5t11.5 -5q11 -12 0 -23zM387 -158q-5 -5 -11 -5t-11 5q-12 11 0 23l79 80q5 5 11.5 5t11.5 -5q11 -12 0 -23zM515 -158q-5 -5 -11 -5t-11 5q-12 11 0 23l79 80q5 5 11.5 5t11.5 -5q11 -12 0 -23z" />
<glyph unicode="L" d="M803 616q11 12 23 0q11 -11 0 -22l-518 -518h-1l-180 -181q-4 -4 -11 -4t-12 4q-5 5 -5 11.5t5 11.5l162 162q-61 19 -105 63q-52 52 -69 125q-2 7 5 14q5 7 14 5q57 -13 112 2.5t96 57.5q42 41 57.5 95.5t2.5 111.5q-2 9 4 15q7 7 15 4q72 -15 125 -68q45 -45 63 -106z M183 166q46 -46 109 -60l268 267q-13 62 -60 109q-18 18 -39.5 32t-45.5 22q7 -59 -12 -114.5t-61 -97.5t-97.5 -61.5t-114.5 -11.5q17 -49 53 -85z" />
<glyph unicode="M" d="M429 734q0 16 16 16t16 -16v-128q0 -16 -16 -16t-16 16v128zM125 238q0 -16 -16 -16h-128q-16 0 -16 16t16 16h128q16 0 16 -16zM805 618q11 12 23 0q11 -11 0 -22l-184 -183q28 -35 43 -76t15 -85q0 -53 -20 -99.5t-55 -81.5t-81.5 -55t-99.5 -20q-45 0 -86 14.5 t-75 42.5l-156 -156q-4 -4 -11 -4t-12 4q-5 5 -5 11.5t5 11.5l157 156q-32 35 -49.5 79.5t-17.5 92.5q0 53 20 99.5t55 81.5t81.5 55t99.5 20q48 0 92.5 -17.5t79.5 -49.5zM228 248q0 -86 57 -149l316 316q-63 57 -149 57q-47 0 -87.5 -17.5t-71 -48t-48 -71.5t-17.5 -87z M106 599q12 11 23 0l91 -91q5 -5 5 -11t-5 -11q-4 -5 -12 -5q-7 0 -11 5l-91 90q-11 11 0 23z" />
<glyph unicode="N" d="M644 269q16 0 16 -16t-16 -16h-448q-16 0 -16 16t16 16h448zM644 333q16 0 16 -16t-16 -16h-448q-16 0 -16 16t16 16h448zM644 397q16 0 16 -16t-16 -16h-448q-16 0 -16 16t16 16h448z" />
<glyph unicode="O" d="M179 0q-36 0 -68 14.5t-56 39t-38 57.5t-14 69q0 37 14 69.5t38 57t56 39t68 14.5q26 0 53 -8q7 30 23 55t38.5 43t50.5 28t59 10q22 0 45 -6q11 45 47 73.5t84 28.5q45 0 81 -27t49 -69q27 -3 50 -14.5t40 -29.5t26.5 -41.5t9.5 -50.5q0 -46 -28.5 -82.5t-73.5 -47.5 q2 -11 4 -21t2 -21q0 -36 -14 -69t-38 -57.5t-56 -39t-68 -14.5h-384zM579 552q-37 0 -65 -23t-36 -58q34 -17 58.5 -45t35.5 -66q51 -3 91 -33t60 -75q35 8 57.5 36t22.5 64q0 22 -8 41t-22.5 33t-33.5 22t-40 8q-16 0 -18 13q-8 36 -36.5 59.5t-65.5 23.5zM179 328 q-29 0 -55.5 -11.5t-46 -32t-31 -47.5t-11.5 -57t11.5 -57t31 -47t46 -32t55.5 -12h384q29 0 55.5 12t46 32t31 47t11.5 57t-11.5 57t-31 47.5t-46 32t-55.5 11.5h-3q-14 0 -16 13q-5 25 -18.5 46t-32 36.5t-42 24t-48.5 8.5q-27 0 -52 -9.5t-44 -27t-31.5 -41t-15.5 -50.5 q0 -9 -8 -12q-6 -4 -14 -1q-27 13 -59 13zM163 -64q-16 0 -16 16t16 16h384q16 0 16 -16t-16 -16h-384zM163 -128q-16 0 -16 16t16 16h384q16 0 16 -16t-16 -16h-384z" />
<glyph unicode="P" d="M80 463q15 37 39 66.5t55 50.5t67.5 32.5t76.5 11.5q16 0 16 -16t-16 -16q-35 0 -67 -10t-59 -28.5t-48 -44.5t-34 -58q-5 -10 -15 -10q-2 0 -3 0.5t-3 0.5q-14 7 -9 21zM25 538q-14 7 -9 21q15 37 39 66.5t55 50.5t67.5 32.5t76.5 11.5q16 0 16 -16t-16 -16 q-35 0 -67 -10t-59 -28.5t-48 -44.5t-34 -58q-5 -10 -15 -10q-2 0 -3 0.5t-3 0.5zM173 0q-35 0 -67 15.5t-56 42t-38.5 61.5t-14.5 73q0 39 14.5 73.5t38.5 61t56 42t67 15.5q14 0 26.5 -2t26.5 -6q7 30 23 55t38.5 43t50.5 28t59 10q22 0 45 -6q11 45 47 73.5t84 28.5 q45 0 81 -27t49 -69q27 -3 50 -14.5t40 -29.5t26.5 -41.5t9.5 -50.5q0 -23 -8 -44.5t-21.5 -38.5t-33 -29.5t-41.5 -18.5q8 -27 8 -53q0 -38 -14.5 -73t-38.5 -61.5t-56 -42t-67 -15.5h-384zM573 576q-37 0 -65 -23t-36 -58q34 -17 58.5 -45t35.5 -66q48 -3 87.5 -33 t60.5 -76q35 8 59 36t24 65q0 22 -8 41t-22.5 33t-33.5 22t-40 8q-6 1 -11.5 4t-7.5 9q-7 36 -35.5 59.5t-65.5 23.5zM173 352q-31 0 -57.5 -14.5t-45.5 -37t-30 -51.5t-11 -57t11 -56.5t30 -51.5t45.5 -37.5t57.5 -14.5h384q31 0 57 14.5t45.5 37.5t30.5 51.5t11 56.5 t-11 57t-30.5 51.5t-45.5 37t-57 14.5h-3q-14 0 -16 13q-5 25 -18.5 46t-32 36.5t-42 24t-48.5 8.5q-27 0 -52 -9.5t-44 -27t-31.5 -41t-15.5 -50.5q0 -9 -8 -12q-6 -5 -14 -1q-27 13 -59 13z" />
<glyph unicode="Q" d="M146 302q-16 0 -16 16q0 54 20.5 102t56.5 84t84 56.5t102 20.5q55 0 103 -20.5t84 -56.5t56.5 -84t20.5 -102q0 -16 -16 -16t-16 16q0 48 -18.5 90t-50 73.5t-73.5 49.5t-90 18t-90 -18t-73.5 -49.5t-49.5 -73.5t-18 -90q0 -16 -16 -16zM378 285q16 0 16 -16v-185 q0 -30 21 -51t51 -21q15 0 30 7t27 18t19.5 24.5t7.5 27.5q0 16 16 16t16 -16q0 -21 -10 -40.5t-26.5 -34.5t-37 -24.5t-42.5 -9.5t-41 8t-33 22.5t-22 33.5t-8 40v185q0 16 16 16zM189 643q-5 -5 -11 -5q-7 0 -12 5q-11 11 0 23l80 80q11 11 23 0q11 -12 0 -23zM317 643 q-5 -5 -11 -5q-7 0 -12 5q-11 11 0 23l80 80q11 11 23 0q11 -12 0 -23zM445 643q-5 -5 -11 -5q-7 0 -12 5q-11 11 0 23l80 80q11 11 23 0q11 -12 0 -23zM573 643q-5 -5 -11 -5q-7 0 -12 5q-11 11 0 23l80 80q11 11 23 0q11 -12 0 -23z" />
<glyph unicode="R" d="M221 110q-38 0 -70 17.5t-55.5 46t-37 63t-13.5 69.5t13.5 70t37 63t55.5 45.5t70 17.5q26 0 53 -8q7 30 23 55t38.5 43t50.5 28t59 10q60 0 106.5 -35.5t62.5 -92.5q36 -2 66.5 -20.5t53 -46t35 -61.5t12.5 -68q0 -35 -13.5 -69.5t-37 -63t-56 -46t-69.5 -17.5h-384z M221 470q-30 0 -56.5 -15t-46 -38.5t-30.5 -53t-11 -57.5q0 -29 11 -58t30.5 -52.5t46 -38.5t56.5 -15h384q30 0 56.5 15t46 38.5t30.5 52.5t11 58q0 28 -11 57.5t-30.5 53t-46 38.5t-56.5 15h-3q-5 0 -10 3.5t-6 9.5q-5 25 -18.5 46t-32 36.5t-42 24t-48.5 8.5 q-27 0 -52 -9.5t-44 -27t-31.5 -41t-15.5 -50.5q0 -9 -8 -12q-6 -4 -14 -1q-27 13 -59 13zM253 46q0 16 16 16t16 -16v-128q0 -16 -16 -16t-16 16v128zM445 46q0 16 16 16t16 -16v-128q0 -16 -16 -16t-16 16v128zM349 46q0 16 16 16t16 -16v-64q0 -16 -16 -16t-16 16v64z M541 46q0 16 16 16t16 -16v-64q0 -16 -16 -16t-16 16v64z" />
<glyph unicode="S" d="M783 320q0 -37 -14 -70.5t-38 -58.5t-56 -40t-68 -15h-384q-36 0 -68 15t-56 40t-38 58.5t-14 70.5t14 70.5t38 59t56 40t68 14.5q26 0 53 -8q7 30 23 55t38.5 43t50.5 28t59 10q60 0 106.5 -35.5t62.5 -92.5q34 -2 64.5 -17.5t53 -40t36 -57.5t13.5 -69zM79 320 q0 -31 11.5 -58.5t31 -48.5t46 -33t55.5 -12h384q29 0 55.5 12t46 33t31 48.5t11.5 58.5t-11.5 58.5t-31 48.5t-46 33t-55.5 12h-3q-14 0 -16 13q-5 25 -18.5 46t-32 36.5t-42 24t-48.5 8.5q-27 0 -52 -9.5t-44 -27t-31.5 -41t-15.5 -50.5q0 -9 -8 -12q-6 -4 -14 -1 q-27 13 -59 13q-29 0 -55.5 -12t-46 -33t-31 -48.5t-11.5 -58.5zM194 84q11 -12 0 -23l-80 -80q-5 -5 -11 -5t-11 5q-12 11 0 23l79 80q5 5 11.5 5t11.5 -5zM322 84q11 -12 0 -23l-80 -80q-5 -5 -11 -5t-11 5q-12 11 0 23l79 80q5 5 11.5 5t11.5 -5zM450 84q11 -12 0 -23 l-80 -80q-5 -5 -11 -5t-11 5q-12 11 0 23l79 80q5 5 11.5 5t11.5 -5zM555 84q5 5 11.5 5t11.5 -5q11 -12 0 -23l-80 -80q-5 -5 -11 -5t-11 5q-12 11 0 23zM427 -44q5 5 11.5 5t11.5 -5q11 -12 0 -23l-32 -32q-5 -5 -11 -5q-5 0 -12 5q-5 5 -5 11.5t5 11.5zM299 -44 q5 5 11.5 5t11.5 -5q11 -12 0 -23l-32 -32q-5 -5 -11 -5q-5 0 -12 5q-5 5 -5 11.5t5 11.5zM171 -44q5 5 11.5 5t11.5 -5q11 -12 0 -23l-32 -32q-5 -5 -11 -5q-5 0 -12 5q-5 5 -5 11.5t5 11.5zM43 -44q5 5 11.5 5t11.5 -5q11 -12 0 -23l-32 -32q-5 -5 -11 -5q-5 0 -12 5 q-5 5 -5 11.5t5 11.5z" />
<glyph unicode="T" d="M614 505q34 -2 64 -18.5t53 -43t36.5 -60.5t13.5 -71q0 -39 -14.5 -74t-38.5 -61.5t-56 -42.5t-67 -16h-384q-35 0 -67 16t-56 42.5t-38.5 61.5t-14.5 74t14.5 74t38.5 61.5t56 42t67 15.5q26 0 53 -8q7 30 23 55t38.5 43t50.5 28t59 10q60 0 106.5 -35.5t62.5 -92.5z M605 150q31 0 57 14.5t45.5 37.5t30.5 52t11 58q0 28 -11 57t-30.5 52t-45.5 37.5t-57 14.5h-3q-14 0 -16 13q-5 25 -18.5 46t-32 36.5t-42 24t-48.5 8.5q-27 0 -52 -9.5t-44 -27t-31.5 -41t-15.5 -50.5q0 -9 -8 -12q-6 -4 -14 -1q-27 13 -59 13q-31 0 -57.5 -14.5 t-45.5 -37.5t-30 -52t-11 -57q0 -29 11 -58t30 -52t45.5 -37.5t57.5 -14.5h384zM300 -138q-5 5 -5 11.5t5 11.5l74 73h-41q-11 0 -14 10q-4 9 3 18l94 95q11 11 23 0q11 -11 0 -23l-67 -68h41q10 0 15 -10q3 -10 -4 -17l-101 -101q-4 -4 -12 -4q-7 0 -11 4z" />
<glyph unicode="U" d="M614 520q34 -2 64.5 -17.5t53 -40.5t36 -58t13.5 -69q0 -38 -14 -71.5t-38 -59t-56 -40.5t-68 -15h-384q-36 0 -68 15t-56 40.5t-38 59t-14 71.5q0 37 14 71t38 59t56 40t68 15q26 0 53 -8q7 30 23 55t38.5 43t50.5 28t59 10q60 0 106.5 -35.5t62.5 -92.5zM605 181 q28 0 54.5 12.5t46 33.5t31.5 49t12 59q0 30 -12 58t-31.5 49t-46 33.5t-54.5 12.5h-3q-14 0 -16 13q-5 25 -18.5 46t-32 36.5t-42 24t-48.5 8.5q-27 0 -52 -9.5t-44 -27t-31.5 -41t-15.5 -50.5q0 -9 -8 -12q-6 -4 -14 -1q-27 13 -59 13q-29 0 -55 -12.5t-46 -33.5 t-31.5 -49t-11.5 -58q0 -31 11.5 -59t31.5 -49t46 -33.5t55 -12.5h384zM268 -143q-5 5 -5 11.5t5 11.5l75 77h-42q-11 0 -14 10q-5 11 4 18l94 87q5 5 11 5t11 -5t4.5 -11.5t-5.5 -11.5l-64 -60h39q10 0 14 -9q5 -10 -3 -18l-101 -104q-4 -5 -12 -5q-7 0 -11 4zM496 -19 q-5 -5 -11 -5t-11 5t-5 11t5 11l79 80q12 12 23 0q11 -11 0 -22zM176 -19q-5 -5 -11 -5t-11 5t-5 11t5 11l79 80q12 12 23 0q11 -11 0 -22z" />
<glyph unicode="V" d="M614 520q34 -2 64.5 -17.5t53 -40.5t36 -58t13.5 -69q0 -38 -14 -71.5t-38 -59t-56 -40.5t-68 -15h-384q-36 0 -68 15t-56 40.5t-38 59t-14 71.5q0 37 14 71t38 59t56 40t68 15q26 0 53 -8q7 30 23 55t38.5 43t50.5 28t59 10q60 0 106.5 -35.5t62.5 -92.5zM605 181 q28 0 54.5 12.5t46 33.5t31.5 49t12 59q0 30 -12 58t-31.5 49t-46 33.5t-54.5 12.5h-3q-14 0 -16 13q-5 25 -18.5 46t-32 36.5t-42 24t-48.5 8.5q-27 0 -52 -9.5t-44 -27t-31.5 -41t-15.5 -50.5q0 -9 -8 -12q-6 -4 -14 -1q-27 13 -59 13q-29 0 -55 -12.5t-46 -33.5 t-31.5 -49t-11.5 -58q0 -31 11.5 -59t31.5 -49t46 -33.5t55 -12.5h384zM236 -143q-5 5 -5 11.5t5 11.5l75 77h-42q-11 0 -14 10q-5 11 4 18l94 87q5 5 11 5t11 -5t4.5 -11.5t-5.5 -11.5l-64 -60h39q10 0 14 -9q5 -10 -3 -18l-101 -104q-4 -5 -12 -5q-7 0 -11 4zM496 -19 q-5 -5 -11 -5t-11 5t-5 11t5 11l79 80q12 12 23 0q11 -11 0 -22zM416 -99q-5 -5 -11 -5q-5 0 -12 5q-5 5 -5 11t5 11l32 32q12 12 23 0q11 -11 0 -22zM144 -19q-5 -5 -11 -5t-11 5t-5 11t5 11l79 80q12 12 23 0q11 -11 0 -22zM64 -99q-5 -5 -11 -5q-5 0 -12 5q-5 5 -5 11 t5 11l32 32q12 12 23 0q11 -11 0 -22z" />
<glyph unicode="W" d="M221 119q-35 0 -67 15.5t-56 42t-38.5 61.5t-14.5 73q0 39 14.5 73.5t38.5 61t56 42t67 15.5q25 0 54 -8q7 30 22.5 55t38 43t50.5 28t59 10q60 0 107 -35.5t63 -92.5q34 -2 64 -18.5t52.5 -42.5t36 -60t13.5 -71q0 -38 -14.5 -73t-38.5 -61.5t-56 -42t-67 -15.5h-384z M221 471q-31 0 -57 -14.5t-45.5 -37t-30.5 -51.5t-11 -57t11 -56.5t30.5 -51.5t45.5 -37.5t57 -14.5h384q31 0 57.5 14.5t45.5 37.5t30 51.5t11 56.5t-11 57t-30 51.5t-45.5 37t-57.5 14.5h-2q-14 0 -16 13q-11 50 -50.5 82.5t-91.5 32.5q-27 0 -51.5 -9.5t-43.5 -27 t-31.5 -41t-15.5 -50.5q0 -9 -8 -12q-6 -5 -14 -1q-29 13 -60 13zM301 -9q0 7 5 11.5t11 4.5q16 0 16 -16t-16 -16q-6 0 -11 4.5t-5 11.5zM461 -9q0 7 5 11.5t11 4.5q16 0 16 -16t-16 -16q-6 0 -11 4.5t-5 11.5zM429 55q0 -16 -16 -16q-6 0 -11 4.5t-5 11.5t5 11.5t11 4.5 q16 0 16 -16zM557 55q0 7 5 11.5t11 4.5q16 0 16 -16t-16 -16q-6 0 -11 4.5t-5 11.5zM397 -73q0 -16 -16 -16q-6 0 -11 4.5t-5 11.5t5 11.5t11 4.5q16 0 16 -16zM237 55q0 7 5 11.5t11 4.5q16 0 16 -16t-16 -16q-6 0 -11 4.5t-5 11.5z" />
<glyph unicode="X" d="M291 -38q0 -16 -16 -16t-16 16v128q0 16 16 16t16 -16v-128zM483 -38q0 -16 -16 -16t-16 16v128q0 16 16 16t16 -16v-128zM387 26q0 -16 -16 -16t-16 16v64q0 16 16 16t16 -16v-64zM579 26q0 -16 -16 -16t-16 16v64q0 16 16 16t16 -16v-64zM781 340q0 -38 -14 -71.5 t-38 -59t-56 -40.5t-68 -15h-384q-36 0 -68 15t-56 40.5t-38 59t-14 71.5t14 71.5t38 59t56 40.5t68 15q27 0 54 -9q7 30 22.5 55t38 43t50.5 28.5t59 10.5q30 0 57 -9.5t49.5 -27t39 -41t24.5 -51.5q34 -2 64.5 -17.5t53 -40.5t35.5 -58t13 -69zM77 340q0 -31 12 -59 t31.5 -49t45.5 -33.5t55 -12.5h384q29 0 55 12.5t46 33.5t31.5 49t11.5 59t-11.5 59t-31.5 49t-46 33.5t-55 12.5l-2 -1q-14 2 -16 13q-11 50 -50.5 83t-91.5 33q-27 0 -51.5 -10t-43.5 -27t-31.5 -40.5t-15.5 -51.5q0 -7 -8 -12q-7 -4 -14 0q-15 6 -29.5 9.5t-30.5 3.5 q-29 0 -55 -12.5t-45.5 -33.5t-31.5 -49t-12 -59zM368 -41q16 0 16 -16t-16 -16q-6 0 -11 4.5t-5 11.5t5 11.5t11 4.5zM560 -41q16 0 16 -16t-16 -16q-6 0 -11 4.5t-5 11.5t5 11.5t11 4.5zM464 -105q16 0 16 -16t-16 -16q-6 0 -11 4.5t-5 11.5t5 11.5t11 4.5zM272 -105 q16 0 16 -16t-16 -16q-6 0 -11 4.5t-5 11.5t5 11.5t11 4.5z" />
<glyph unicode="Y" d="M730 632q22 0 40.5 -10t31.5 -26t20 -36t7 -40q0 -22 -8.5 -42.5t-22.5 -36t-32.5 -24.5t-39.5 -9h-390q-16 0 -16 16t16 16h390q14 0 27 6.5t22.5 17.5t15.5 25.5t6 30.5q0 15 -5 29t-13.5 25.5t-21 18.5t-27.5 7q-16 0 -16 16t16 16zM698 183q15 0 27.5 7t21 18 t13.5 25.5t5 28.5t-5.5 28.5t-15 26.5t-22.5 19.5t-28 7.5h-550q-16 0 -16 16t16 16h550q22 0 41 -10t32.5 -26.5t21.5 -37t8 -40.5q0 -23 -7.5 -43t-21 -35t-31.5 -24t-39 -9q-16 0 -16 16t16 16zM260 275q5 -5 5 -11t-5 -11l-67 -69h41q12 0 15 -10q3 -9 -3 -17l-102 -101 q-4 -4 -11 -4t-11 5q-5 5 -5 11t5 11l73 73h-40q-10 0 -15 10q-4 10 4 18l94 95q11 11 22 0zM407 295q11 11 23 0q5 -5 5 -11.5t-5 -11.5l-80 -80q-4 -4 -12 -4q-7 0 -11 4q-5 5 -5 11.5t5 11.5zM87 295q11 11 23 0q5 -5 5 -11.5t-5 -11.5l-80 -80q-4 -4 -12 -4q-7 0 -11 4 q-5 5 -5 11.5t5 11.5z" />
<glyph unicode="Z" d="M222 425q0 16 16 16h384q16 0 16 -16t-16 -16h-384q-16 0 -16 16zM863 448q0 -21 -8 -40t-22 -33t-33 -22t-40 -8h-458q-16 0 -16 16t16 16h458q29 0 50 21t21 50q0 15 -5.5 30t-14.5 27t-21.5 20t-27.5 8q-16 0 -16 16t16 16q22 0 41 -10.5t32 -27.5t20.5 -37.5 t7.5 -41.5zM831 190q0 -22 -8 -41.5t-21.5 -33.5t-32 -22.5t-39.5 -8.5q-16 0 -16 16q0 6 4.5 11t11.5 5q29 0 49 21.5t20 52.5q0 15 -6 31t-15.5 29.5t-22.5 22t-27 8.5h-554q-16 0 -16 16t16 16h554q22 0 40.5 -11t32.5 -29t22 -40t8 -43zM62 425q0 16 16 16h96 q16 0 16 -16t-16 -16h-96q-16 0 -16 16zM14 281q-16 0 -16 16t16 16h96q16 0 16 -16t-16 -16h-96zM142 345q-16 0 -16 16t16 16h96q16 0 16 -16t-16 -16h-96z" />
<glyph unicode="a" d="M388 316q0 -16 -16 -16h-384q-16 0 -16 16t16 16h384q16 0 16 -16zM656 556q35 0 67.5 -16t57 -42.5t39 -61t14.5 -72.5t-14.5 -73t-38.5 -61.5t-56 -42t-67 -15.5h-382q-16 0 -16 16t16 16h382q31 0 57.5 14.5t45.5 37.5t30 51.5t11 56.5q0 31 -12 60t-32 51.5 t-46.5 35.5t-55.5 13q-6 0 -11 4.5t-5 11.5t5 11.5t11 4.5zM116 236q-16 0 -16 16t16 16h397q14 0 27 8.5t22.5 21t15.5 28t6 30.5q0 32 -21 54t-50 22q-6 0 -11 4.5t-5 11.5t5 11.5t11 4.5q21 0 39.5 -8.5t33 -23.5t22.5 -34.5t8 -41.5q0 -21 -8 -42t-22 -38.5t-32.5 -28.5 t-40.5 -11h-397z" />
<glyph unicode="b" d="M448 326q0 48 -18 90t-49.5 73.5t-73.5 50t-90 18.5t-90.5 -18.5t-74 -50t-49.5 -73.5t-18 -90q0 -6 -4.5 -11t-11.5 -5q-6 0 -11 5t-5 11q0 55 21 103t57 84t84 56.5t102 20.5t102 -20.5t84 -56.5t56.5 -84t20.5 -103q0 -6 -4.5 -11t-11.5 -5t-11.5 5t-4.5 11zM728 444 q21 0 39.5 -9t32.5 -24t22 -35t8 -42q0 -21 -8 -41.5t-22 -37.5t-33 -27.5t-41 -10.5h-395q-16 0 -16 16t16 16h395q15 0 28 8t23 20.5t15.5 27.5t5.5 29q0 32 -21 55t-49 23q-16 0 -16 16t16 16zM694 185q21 0 39.5 -9t33 -24t23 -34.5t8.5 -41.5q0 -20 -7.5 -40.5 t-21 -36.5t-32.5 -26t-41 -10q-16 0 -16 16q0 6 4.5 11t11.5 5q15 0 28 7.5t22 19t14.5 26t5.5 28.5q0 31 -21.5 54t-50.5 23h-555q-16 0 -16 16t16 16h555z" />
<glyph unicode="c" d="M780 455q0 -1 0.5 -1t0.5 -1v-1q-1 -1 -1 -3q-1 -13 -15 -27l-339 -563q-3 -8 -13 -8q-9 0 -14 8l-338 563q-14 12 -15 27q-1 1 -1 3v1v2q0 2 1 3q4 27 44 44.5t96.5 28t118 15t108.5 4.5q31 0 69.5 -2t78.5 -6t78 -11t68.5 -17t50 -24t22.5 -32v-3zM413 518 q-78 0 -139 -6.5t-103.5 -16t-66 -20t-26.5 -19.5l9 -15q24 -17 107 -34.5t219 -17.5q137 0 219 17.5t107 34.5l9 15q-4 9 -27.5 19.5t-66 20t-103 16t-138.5 6.5zM710 393q-30 -10 -68.5 -17t-79 -11t-79.5 -6t-70 -2q-32 0 -71 2t-79.5 6t-79 11t-68.5 17l298 -495z" />
<glyph unicode="d" d="M410 550q32 0 71.5 -2t80.5 -6.5t80 -11.5t69 -18t48.5 -25.5t18.5 -33.5t-18.5 -33.5t-48.5 -25t-69 -18t-80 -11.5t-80.5 -6t-71.5 -2t-71.5 2t-80.5 6t-80 11.5t-69 18t-48.5 25t-18.5 33.5q0 28 39.5 47t96.5 30t120.5 15.5t111.5 4.5zM410 389q81 0 144 7t105.5 17 t64.5 21t22 19t-22 19.5t-64.5 21.5t-105.5 17t-144 7q-82 0 -144.5 -7t-105 -17t-64.5 -21.5t-22 -19.5t22 -19t64.5 -21t105 -17t144.5 -7zM707 308q16 0 16 -15q0 -16 -15.5 -29t-41.5 -22t-59 -15.5t-68 -10.5t-68.5 -5.5t-60.5 -1.5q-41 0 -94.5 4t-102.5 13.5 t-82.5 25.5t-33.5 41q0 16 16 16t16 -16q0 -5 17.5 -14t52 -17.5t87 -14.5t124.5 -6t124.5 6t87 14.5t51.5 17.5t18 14q0 7 5 11.5t11 3.5zM575 133q0 -18 -22 -28t-50.5 -15t-55.5 -6t-37 -1q-11 0 -38 1t-55.5 6t-50.5 15t-22 28q0 7 5 11.5t11 4.5q14 0 16 -13 q7 -5 40.5 -13t93.5 -8q59 0 93 8t40 13q3 13 16 13q16 0 16 -16zM410 -149q-9 0 -14 8l-84 139q-3 6 -1.5 12.5t7.5 9.5q5 4 11.5 2t10.5 -7l70 -117l70 117q8 13 22 6q6 -4 7.5 -10.5t-2.5 -11.5l-84 -140q-3 -8 -13 -8z" />
<glyph unicode="e" d="M409 550q32 0 71.5 -2t80.5 -6.5t80 -11.5t69 -18t48.5 -25.5t18.5 -33.5t-18.5 -33.5t-48.5 -25t-69 -18t-80 -11.5t-80.5 -6t-71.5 -2t-71.5 2t-80.5 6t-80 11.5t-69 18t-48.5 25t-18.5 33.5q0 28 39.5 47t96.5 30t120.5 15.5t111.5 4.5zM409 395q72 0 114 9t52 17 q-10 8 -52 17t-114 9q-73 0 -114.5 -9t-52.5 -17q11 -8 52.5 -17t114.5 -9zM601 402q71 11 107.5 25.5t36.5 25.5q0 8 -22 19.5t-64.5 21.5t-105.5 17t-144 7q-82 0 -144.5 -7t-105 -17t-64.5 -21.5t-22 -19.5q0 -11 36.5 -25.5t107.5 -25.5q-9 7 -9 19q0 14 13.5 24 t34 16.5t45 10t47 5t39.5 2t22 0.5t22 -0.5t39 -2t46.5 -5t45 -10t34 -16.5t13.5 -24q0 -11 -8 -19zM706 308q16 0 16 -15q0 -16 -15.5 -29t-41.5 -22t-59 -15.5t-68 -10.5t-68.5 -5.5t-60.5 -1.5q-41 0 -94.5 4t-102.5 13.5t-82.5 25.5t-33.5 41q0 16 16 16t16 -16 q0 -5 17.5 -14t52 -17.5t87 -14.5t124.5 -6t124.5 6t87 14.5t51.5 17.5t18 14q0 7 5 11.5t11 3.5zM574 133q0 -18 -22 -28t-50.5 -15t-55.5 -6t-37 -1q-11 0 -38 1t-55.5 6t-50.5 15t-22 28q0 7 5 11.5t11 4.5q14 0 16 -13q7 -5 40.5 -13t93.5 -8q59 0 93 8t40 13 q3 13 16 13q16 0 16 -16zM479 15q8 13 22 6q6 -4 7.5 -10.5t-2.5 -11.5l-84 -140q-3 -8 -13 -8q-9 0 -14 8l-84 139q-3 6 -1.5 12.5t7.5 9.5q5 4 11.5 2t10.5 -7l70 -117z" />
<glyph unicode="f" d="M400 477q-16 0 -16 16v128q0 16 16 16t16 -16v-128q0 -16 -16 -16zM744 484q5 5 11 5t11 -5q12 -11 0 -23l-90 -90q-5 -5 -11 -5q-7 0 -12 5t-5 11.5t5 11.5zM65 484q11 11 23 0l90 -90q11 -12 0 -23q-5 -5 -11 -5t-11 5l-91 90q-5 5 -5 11.5t5 11.5zM832 141 q16 0 16 -16t-16 -16h-832q-16 0 -16 16t16 16h160q1 52 22 97t55.5 78.5t80.5 53t98 19.5t97.5 -19.5t80 -53t55 -78.5t22.5 -97h161zM416 357q-45 0 -85.5 -17t-70.5 -46t-48.5 -68.5t-19.5 -84.5h447q-2 45 -20 84.5t-48 68.5t-70 46t-85 17z" />
<glyph unicode="g" d="M832 141q16 0 16 -16t-16 -16h-832q-16 0 -16 16t16 16h160q0 53 20 99.5t55 81.5t81.5 55t99.5 20t99.5 -20t81.5 -55t55 -81.5t20 -99.5h160v0z" />
<glyph unicode="h" d="M402 581q53 0 100 -20t81.5 -55t54.5 -81.5t20 -99.5t-20 -99.5t-54.5 -81.5t-81.5 -55t-100 -20t-99.5 20t-81.5 55t-55 81.5t-20 99.5t20 99.5t55 81.5t81.5 55t99.5 20zM402 101q46 0 87 17.5t71.5 48t48 71.5t17.5 87t-17.5 87t-48 71.5t-71.5 48t-87 17.5t-87 -17.5 t-71.5 -48t-48 -71.5t-17.5 -87t17.5 -87t48 -71.5t71.5 -48t87 -17.5zM376 805q0 16 16 16t16 -16v-128q0 -16 -16 -16t-16 16v128zM392 -11q16 0 16 -16v-128q0 -16 -16 -16t-16 16v128q0 16 16 16zM72 309q0 -16 -16 -16h-128q-16 0 -16 16t16 16h128q16 0 16 -16z M888 325q16 0 16 -16t-16 -16h-128q-16 0 -16 16t16 16h128zM148 88q5 5 11 5t11 -5q11 -12 0 -23l-90 -90q-4 -5 -12 -5q-7 0 -11 5q-5 5 -5 11t5 11zM736 676q11 11 22 0q12 -11 0 -23l-90 -90q-5 -5 -11 -5q-7 0 -12 5q-11 11 0 23zM758 -3q5 -5 5 -11t-5 -11 q-4 -5 -11 -5t-11 5l-91 90q-5 5 -5 11.5t5 11.5t11.5 5t11.5 -5zM57 676q11 11 23 0l90 -90q11 -12 0 -23q-5 -5 -11 -5t-11 5l-91 90q-5 5 -5 11.5t5 11.5zM402 462q28 0 53 -10.5t44 -29.5t29.5 -44t10.5 -53t-10.5 -53t-29.5 -43.5t-44 -29t-53 -10.5t-53 10.5t-43.5 29 t-29 43.5t-10.5 53t10.5 53t29 44t43.5 29.5t53 10.5z" />
<glyph unicode="i" d="M696 252q0 -30 -9 -58t-24.5 -52t-38 -42.5t-49.5 -30.5q3 -2 6.5 -5t6.5 -5q8 -5 8 -13q0 -9 -8 -14q-63 -40 -136 -40q-53 0 -99.5 20t-81.5 55t-55 81.5t-20 99.5t20 99.5t55 81.5t81.5 55t99.5 20q74 0 136 -39q8 -5 8 -14q0 -10 -8 -13q-4 -4 -6 -5q52 -25 83 -73 t31 -108zM547 93q52 17 84.5 60.5t32.5 98.5q0 54 -30 97t-81 61q-33 -32 -51 -73.5t-18 -88.5q0 -45 16.5 -84.5t46.5 -70.5zM844 248q16 0 16 -16t-16 -16h-96q-16 0 -16 16t16 16h96zM702 432q-5 -5 -11 -5q-5 0 -12 5q-5 5 -5 11.5t5 11.5l70 69q11 11 22 0 q12 -11 0 -23zM771 4q12 -12 0 -23q-5 -5 -11 -5t-11 5l-70 69q-5 5 -5 11.5t5 11.5t11.5 5t11.5 -5z" />
<glyph unicode="j" d="M392 499q5 7 13.5 7t13.5 -7q4 -6 16 -25t28 -45.5t34 -58.5t33 -63.5t24.5 -60.5t9.5 -49q0 -33 -12.5 -61.5t-34 -50t-50 -34t-61.5 -12.5t-61.5 12.5t-50 34t-34 50t-12.5 61.5q0 20 9.5 49t24.5 60.5t32.5 63.5t33.5 58.5t28 45.5t16 25zM406 71q26 0 49 10t40 27 t27 40t10 49q0 20 -13.5 54t-33 71.5t-41.5 74.5t-38 63q-17 -26 -38.5 -63t-41 -74.5t-33 -71.5t-13.5 -54q0 -26 10 -49t27 -40t40 -27t49 -10z" />
<glyph unicode="k" d="M505 192q30 -23 47 -56.5t17 -71.5q0 -33 -12.5 -62t-34.5 -51t-51 -34.5t-62 -12.5t-62 12.5t-51 34.5t-34.5 51t-12.5 62q0 38 17 71.5t47 56.5v386q0 24 7.5 45.5t20.5 37.5t30.5 25.5t37.5 9.5t37.5 -9.5t30.5 -25.5t20.5 -37.5t7.5 -45.5v-386zM409 -64 q26 0 49.5 10t41 27.5t27.5 41t10 49.5q0 32 -15.5 60.5t-41.5 46.5q-7 4 -7 13v394q0 18 -5 33.5t-14 27t-20.5 18.5t-24.5 7q-26 0 -45 -25.5t-19 -60.5v-394q0 -8 -7 -13q-27 -18 -42 -46.5t-15 -60.5q0 -26 10 -49.5t27.5 -41t40.5 -27.5t50 -10zM441 130 q21 -10 34.5 -29.5t13.5 -44.5q0 -33 -23.5 -56.5t-56.5 -23.5t-56.5 23.5t-23.5 56.5q0 25 13.5 44.5t34.5 29.5v429q0 17 9 29t23 12q13 0 22.5 -12t9.5 -29v-429z" />
<glyph unicode="l" d="M613 622q-44 0 -83.5 -17t-69.5 -45.5t-48 -66t-18 -79.5v-192q0 -41 18 -79t48 -66.5t69.5 -45.5t83.5 -17h37q16 0 16 -16t-16 -16h-37q-51 0 -96.5 19t-80 52t-54.5 76.5t-20 92.5v192q0 49 20 92.5t54.5 76.5t80 52t96.5 19h37q16 0 16 -16t-16 -16h-37zM207 700 q40 0 68 -28t28 -68t-28 -68t-68 -28t-68 28t-28 68t28 68t68 28zM207 540q26 0 45 18.5t19 45.5q0 26 -19 45t-45 19q-27 0 -45.5 -19t-18.5 -45q0 -27 18.5 -45.5t45.5 -18.5z" />
<glyph unicode="m" d="M650 654q16 0 16 -16t-16 -16h-37q-44 0 -83.5 -17t-69.5 -45.5t-48 -66t-18 -79.5v-112h96q16 0 16 -16t-16 -16h-96v-288q0 -16 -16 -16t-16 16v288h-96q-16 0 -16 16t16 16h96v112q0 49 20 92.5t54.5 76.5t80 52t96.5 19h37zM303 604q0 -40 -28 -68t-68 -28t-68 28 t-28 68t28 68t68 28t68 -28t28 -68zM207 540q26 0 45 18.5t19 45.5q0 26 -19 45t-45 19q-27 0 -45.5 -19t-18.5 -45q0 -27 18.5 -45.5t45.5 -18.5z" />
<glyph unicode="n" d="M422 617q66 0 124 -25t101.5 -68.5t69 -102t25.5 -124.5t-25.5 -124.5t-69 -102t-101.5 -68.5t-124 -25t-124.5 25t-102 68.5t-68.5 102t-25 124.5t25 124.5t68.5 102t102 68.5t124.5 25zM422 9q60 0 112.5 23t91.5 62t61.5 91.5t22.5 111.5q0 60 -22.5 112.5t-61.5 91.5 t-91.5 61.5t-112.5 22.5t-112.5 -22.5t-91.5 -61.5t-61.5 -91.5t-22.5 -112.5q0 -59 22.5 -111.5t61.5 -91.5t91.5 -62t112.5 -23zM534 436q10 5 18 -3t3 -18q-3 -5 -14.5 -28t-26 -50t-29 -51.5t-23.5 -33.5t-33.5 -23.5t-51.5 -29t-50 -26t-28 -14.5q-2 -2 -7 -2 q-6 0 -11 5q-9 7 -3 18q3 5 14.5 28t26 50t29 51.5t23.5 33.5t33.5 23.5t51.5 29t50 26t28 14.5z" />
<glyph unicode="o" d="M681 299q16 0 16 -16t-16 -16h-234l165 -165q5 -5 5 -11t-5 -11t-11 -5t-11 5l-165 165v-234q0 -16 -16 -16t-16 16v234l-165 -165q-5 -5 -12 -5q-6 0 -11 5t-5 11t5 11l165 165h-233q-16 0 -16 16t16 16h233l-165 165q-5 5 -5 11.5t5 11.5q11 11 23 0l165 -165v233 q0 16 16 16t16 -16v-233l165 165q5 5 11 5t11 -5q12 -11 0 -23l-165 -165h234v0z" />
<glyph unicode="p" d="M512 498q28 0 47.5 -20t19.5 -48t-19.5 -48t-47.5 -20q-29 0 -48.5 20t-19.5 48t19.5 48t48.5 20zM421 339q16 -15 7 -43.5t-31 -63.5q22 -42 22 -90q0 -41 -15.5 -76.5t-41.5 -62t-62 -42t-76 -15.5q-48 0 -90 22q-2 0 -4 -2q-50 -32 -79 -32q-15 0 -25 10 q-27 27 24 107q-22 44 -22 91q0 40 15.5 76t42 62.5t62 42t76.5 15.5q49 0 90 -23q80 52 107 24zM224 306q-34 0 -64 -13t-52 -35.5t-35 -52t-13 -63.5q0 -43 20 -78t52 -58q26 18 57 43.5t66 60.5t61 66t43 57q-22 33 -57.5 53t-77.5 20zM49 -34q11 -5 55 22 q-10 8 -18.5 16t-16.5 18q-16 -27 -19 -40.5t-1 -15.5zM387 142q0 31 -11 59q-23 -31 -49 -60.5t-49 -52.5q-29 -29 -57.5 -53.5t-55.5 -44.5q14 -5 28.5 -8.5t30.5 -3.5q34 0 63.5 13t51.5 35.5t35 52t13 63.5zM378 262q27 45 20 55q-2 1 -14.5 -2t-39.5 -19q19 -15 34 -34 zM675 634q11 -12 0 -23l-80 -80q-5 -5 -11 -5t-11 5q-12 11 0 23l79 80q12 11 23 0zM802 689q12 12 23 1q11 -12 0 -23l-198 -200q-5 -5 -11 -5t-11 5t-5.5 11.5t4.5 11.5z" />
<glyph unicode="q" d="M756 130q-7 0 -12 5l-322 321l-321 -321q-5 -5 -12 -5t-12 5q-10 12 0 24l334 333q5 5 11.5 5t11.5 -5l334 -333q10 -12 0 -24q-7 -5 -12 -5z" />
<glyph unicode="r" d="M756 497q5 0 12 -5q10 -12 0 -24l-334 -333q-5 -5 -11.5 -5t-11.5 5l-334 333q-10 12 0 24q5 5 12 5t12 -5l321 -321l322 321q5 5 12 5z" />
<glyph unicode="&#x25fc;" horiz-adv-x="500" d="M0 0v0v0v0v0z" />
</font>
</defs>
</svg>
